# xmcd CD database file
#
# Track frame offsets:
#	150
#	12622
#	25032
#	37652
#	50727
#	63285
#	75492
#	88152
#	100945
#	113682
#	125855
#	138112
#
# Disc length: 2006 seconds
#
# Revision: 1
# Processed by: cddbd v1.4PL0 Copyright (c) Steve Scherf et al.
# Submitted via: CDex 1.40Release
#
DISCID=9507d40c
DTITLE=Hank Williams - Move It On Over - Disc Three
DYEAR=1999
DGENRE=Country
TTITLE0=Move It On Over
TTITLE1=I Saw The Light
TTITLE2=Honky Tonkin'
TTITLE3=Calling You
TTITLE4=Wealth Won't Save Your Soul
TTITLE5=Never Again (Will I Knock On Your Door)
TTITLE6=I Don't Care (If Tomorrow Never Comes)
TTITLE7=When God Comes And Gathers His Jewels
TTITLE8=Pan American
TTITLE9=My Love For You (Has Turned To Hate)
TTITLE10=(Last Night) I Heard You Crying In Your Sleep
TTITLE11=Six More Miles (To The Graveyard)
EXTD=YEAR: 1999 ID3G: 2
EXTT0=
EXTT1=
EXTT2=
EXTT3=
EXTT4=
EXTT5=
EXTT6=
EXTT7=
EXTT8=
EXTT9=
EXTT10=
EXTT11=
PLAYORDER=
